# MagicaVoxel @ Ephtracy

# group
o 

# material
mtllib Crab.mtl
usemtl palette

# normals
vn -1 0 0
vn 1 0 0
vn 0 0 1
vn 0 0 -1
vn 0 -1 0
vn 0 1 0

# texcoords
vt 0.0410156 0.5
vt 0.134766 0.5
vt 0.775391 0.5
vt 0.841797 0.5
vt 0.845703 0.5
vt 0.873047 0.5
vt 0.923828 0.5
vt 0.958984 0.5
vt 0.962891 0.5
vt 0.966797 0.5
vt 0.970703 0.5
vt 0.982422 0.5
vt 0.986328 0.5

# verts
v -0.6 0.6 0.1
v -0.6 0.6 -2.98023e-08
v -0.6 0.8 0.1
v -0.6 0.8 -2.98023e-08
v -0.6 0.9 0.1
v -0.6 0.9 -2.98023e-08
v -0.6 1 0.1
v -0.6 1 -2.98023e-08
v -0.6 1.1 0.1
v -0.6 1.1 -2.98023e-08
v -0.6 1.3 0.1
v -0.6 1.3 -2.98023e-08
v -0.5 0.5 0.1
v -0.5 0.5 -2.98023e-08
v -0.5 0.6 0.1
v -0.5 0.6 -2.98023e-08
v -0.5 0.8 0.1
v -0.5 0.8 -2.98023e-08
v -0.5 0.9 0.1
v -0.5 0.9 -2.98023e-08
v -0.5 1.3 0.1
v -0.5 1.3 -2.98023e-08
v -0.5 1.4 0.1
v -0.5 1.4 -2.98023e-08
v -0.4 0 0.3
v -0.4 0 0.2
v -0.4 0 0.1
v -0.4 0 -2.98023e-08
v -0.4 0 -0.1
v -0.4 0 -0.2
v -0.4 0.1 0.3
v -0.4 0.1 0.2
v -0.4 0.1 0.1
v -0.4 0.1 -2.98023e-08
v -0.4 0.1 -0.1
v -0.4 0.1 -0.2
v -0.4 0.2 0.3
v -0.4 0.2 0.2
v -0.4 0.2 0.1
v -0.4 0.2 -2.98023e-08
v -0.4 0.2 -0.1
v -0.4 0.2 -0.2
v -0.4 0.4 0.1
v -0.4 0.4 -2.98023e-08
v -0.4 0.5 0.1
v -0.4 0.5 -2.98023e-08
v -0.3 0.2 0.3
v -0.3 0.2 0.2
v -0.3 0.2 0.1
v -0.3 0.2 -2.98023e-08
v -0.3 0.2 -0.1
v -0.3 0.2 -0.2
v -0.3 0.3 -0.1
v -0.3 0.3 -0.2
v -0.3 0.4 0.3
v -0.3 0.4 0.2
v -0.3 0.4 0.1
v -0.3 0.4 -2.98023e-08
v -0.3 0.5 0.3
v -0.3 0.5 0.2
v -0.3 0.5 0.1
v -0.3 0.5 -2.98023e-08
v -0.3 0.5 -0.2
v -0.2 0.5 0.2
v -0.2 0.5 0.1
v -0.2 0.6 0.2
v -0.2 0.6 0.1
v -0.2 0.7 0.2
v -0.2 0.7 0.1
v -0.2 0.8 0.2
v -0.2 0.8 0.1
v 0.1 0.5 0.2
v 0.1 0.5 0.1
v 0.1 0.6 0.2
v 0.1 0.6 0.1
v 0.1 0.7 0.2
v 0.1 0.7 0.1
v 0.1 0.8 0.2
v 0.1 0.8 0.1
v 0.3 0 0.3
v 0.3 0 0.2
v 0.3 0 0.1
v 0.3 0 -2.98023e-08
v 0.3 0 -0.1
v 0.3 0 -0.2
v 0.3 0.1 0.3
v 0.3 0.1 0.2
v 0.3 0.1 0.1
v 0.3 0.1 -2.98023e-08
v 0.3 0.1 -0.1
v 0.3 0.1 -0.2
v 0.3 0.2 0.3
v 0.3 0.2 0.2
v 0.3 0.2 0.1
v 0.3 0.2 -2.98023e-08
v 0.3 0.2 -0.1
v 0.3 0.2 -0.2
v 0.3 0.6 0.1
v 0.3 0.6 -2.98023e-08
v 0.3 0.8 0.1
v 0.3 0.8 -2.98023e-08
v 0.4 0.5 0.1
v 0.4 0.5 -2.98023e-08
v 0.4 0.6 0.1
v 0.4 0.6 -2.98023e-08
v 0.4 0.8 0.1
v 0.4 0.8 -2.98023e-08
v 0.4 0.9 0.1
v 0.4 0.9 -2.98023e-08
v 0.4 1.1 0.1
v 0.4 1.1 -2.98023e-08
v 0.4 1.3 0.1
v 0.4 1.3 -2.98023e-08
v 0.4 1.4 0.1
v 0.4 1.4 -2.98023e-08
v -0.4 0.5 0.1
v -0.4 0.5 -2.98023e-08
v -0.4 0.6 0.1
v -0.4 0.6 -2.98023e-08
v -0.4 0.8 0.1
v -0.4 0.8 -2.98023e-08
v -0.4 0.9 0.1
v -0.4 0.9 -2.98023e-08
v -0.4 1.1 0.1
v -0.4 1.1 -2.98023e-08
v -0.4 1.3 0.1
v -0.4 1.3 -2.98023e-08
v -0.4 1.4 0.1
v -0.4 1.4 -2.98023e-08
v -0.3 0 0.3
v -0.3 0 0.2
v -0.3 0 0.1
v -0.3 0 -2.98023e-08
v -0.3 0 -0.1
v -0.3 0 -0.2
v -0.3 0.1 0.3
v -0.3 0.1 0.2
v -0.3 0.1 0.1
v -0.3 0.1 -2.98023e-08
v -0.3 0.1 -0.1
v -0.3 0.1 -0.2
v -0.3 0.2 0.3
v -0.3 0.2 0.2
v -0.3 0.2 0.1
v -0.3 0.2 -2.98023e-08
v -0.3 0.2 -0.1
v -0.3 0.2 -0.2
v -0.3 0.6 0.1
v -0.3 0.6 -2.98023e-08
v -0.3 0.8 0.1
v -0.3 0.8 -2.98023e-08
v -0.1 0.5 0.2
v -0.1 0.5 0.1
v -0.1 0.6 0.2
v -0.1 0.6 0.1
v -0.1 0.7 0.2
v -0.1 0.7 0.1
v -0.1 0.8 0.2
v -0.1 0.8 0.1
v 0.2 0.5 0.2
v 0.2 0.5 0.1
v 0.2 0.6 0.2
v 0.2 0.6 0.1
v 0.2 0.7 0.2
v 0.2 0.7 0.1
v 0.2 0.8 0.2
v 0.2 0.8 0.1
v 0.3 0.2 0.3
v 0.3 0.2 0.2
v 0.3 0.2 0.1
v 0.3 0.2 -2.98023e-08
v 0.3 0.2 -0.1
v 0.3 0.2 -0.2
v 0.3 0.3 -0.1
v 0.3 0.3 -0.2
v 0.3 0.4 0.3
v 0.3 0.4 0.2
v 0.3 0.4 0.1
v 0.3 0.4 -2.98023e-08
v 0.3 0.5 0.3
v 0.3 0.5 0.2
v 0.3 0.5 0.1
v 0.3 0.5 -2.98023e-08
v 0.3 0.5 -0.2
v 0.4 0 0.3
v 0.4 0 0.2
v 0.4 0 0.1
v 0.4 0 -2.98023e-08
v 0.4 0 -0.1
v 0.4 0 -0.2
v 0.4 0.1 0.3
v 0.4 0.1 0.2
v 0.4 0.1 0.1
v 0.4 0.1 -2.98023e-08
v 0.4 0.1 -0.1
v 0.4 0.1 -0.2
v 0.4 0.2 0.3
v 0.4 0.2 0.2
v 0.4 0.2 0.1
v 0.4 0.2 -2.98023e-08
v 0.4 0.2 -0.1
v 0.4 0.2 -0.2
v 0.4 0.4 0.1
v 0.4 0.4 -2.98023e-08
v 0.4 0.5 0.1
v 0.4 0.5 -2.98023e-08
v 0.5 0.5 0.1
v 0.5 0.5 -2.98023e-08
v 0.5 0.6 0.1
v 0.5 0.6 -2.98023e-08
v 0.5 0.8 0.1
v 0.5 0.8 -2.98023e-08
v 0.5 0.9 0.1
v 0.5 0.9 -2.98023e-08
v 0.5 1.3 0.1
v 0.5 1.3 -2.98023e-08
v 0.5 1.4 0.1
v 0.5 1.4 -2.98023e-08
v 0.6 0.6 0.1
v 0.6 0.6 -2.98023e-08
v 0.6 0.8 0.1
v 0.6 0.8 -2.98023e-08
v 0.6 0.9 0.1
v 0.6 0.9 -2.98023e-08
v 0.6 1 0.1
v 0.6 1 -2.98023e-08
v 0.6 1.1 0.1
v 0.6 1.1 -2.98023e-08
v 0.6 1.3 0.1
v 0.6 1.3 -2.98023e-08
v -0.4 0 0.3
v -0.4 0.1 0.3
v -0.4 0.2 0.3
v -0.3 0 0.3
v -0.3 0.1 0.3
v -0.3 0.2 0.3
v -0.3 0.4 0.3
v -0.3 0.5 0.3
v -0.2 0.4 0.3
v -0.2 0.5 0.3
v 0.2 0.4 0.3
v 0.2 0.5 0.3
v 0.3 0 0.3
v 0.3 0.1 0.3
v 0.3 0.2 0.3
v 0.3 0.4 0.3
v 0.3 0.5 0.3
v 0.4 0 0.3
v 0.4 0.1 0.3
v 0.4 0.2 0.3
v -0.2 0.5 0.2
v -0.2 0.6 0.2
v -0.2 0.7 0.2
v -0.2 0.8 0.2
v -0.1 0.5 0.2
v -0.1 0.6 0.2
v -0.1 0.7 0.2
v -0.1 0.8 0.2
v 0.1 0.5 0.2
v 0.1 0.6 0.2
v 0.1 0.7 0.2
v 0.1 0.8 0.2
v 0.2 0.5 0.2
v 0.2 0.6 0.2
v 0.2 0.7 0.2
v 0.2 0.8 0.2
v -0.6 0.6 0.1
v -0.6 0.8 0.1
v -0.6 0.9 0.1
v -0.6 1 0.1
v -0.6 1.1 0.1
v -0.6 1.3 0.1
v -0.5 0.5 0.1
v -0.5 0.6 0.1
v -0.5 0.7 0.1
v -0.5 0.8 0.1
v -0.5 0.9 0.1
v -0.5 1 0.1
v -0.5 1.1 0.1
v -0.5 1.3 0.1
v -0.5 1.4 0.1
v -0.4 0 0.1
v -0.4 0.1 0.1
v -0.4 0.2 0.1
v -0.4 0.4 0.1
v -0.4 0.5 0.1
v -0.4 0.6 0.1
v -0.4 0.7 0.1
v -0.4 0.8 0.1
v -0.4 0.9 0.1
v -0.4 1.1 0.1
v -0.4 1.3 0.1
v -0.4 1.4 0.1
v -0.3 0 0.1
v -0.3 0.1 0.1
v -0.3 0.2 0.1
v -0.3 0.4 0.1
v -0.3 0.5 0.1
v -0.3 0.6 0.1
v -0.3 0.8 0.1
v 0.3 0 0.1
v 0.3 0.1 0.1
v 0.3 0.2 0.1
v 0.3 0.4 0.1
v 0.3 0.5 0.1
v 0.3 0.6 0.1
v 0.3 0.8 0.1
v 0.4 0 0.1
v 0.4 0.1 0.1
v 0.4 0.2 0.1
v 0.4 0.4 0.1
v 0.4 0.5 0.1
v 0.4 0.6 0.1
v 0.4 0.7 0.1
v 0.4 0.8 0.1
v 0.4 0.9 0.1
v 0.4 1.1 0.1
v 0.4 1.3 0.1
v 0.4 1.4 0.1
v 0.5 0.5 0.1
v 0.5 0.6 0.1
v 0.5 0.7 0.1
v 0.5 0.8 0.1
v 0.5 0.9 0.1
v 0.5 1 0.1
v 0.5 1.1 0.1
v 0.5 1.3 0.1
v 0.5 1.4 0.1
v 0.6 0.6 0.1
v 0.6 0.8 0.1
v 0.6 0.9 0.1
v 0.6 1 0.1
v 0.6 1.1 0.1
v 0.6 1.3 0.1
v -0.4 0 -0.1
v -0.4 0.1 -0.1
v -0.4 0.2 -0.1
v -0.3 0 -0.1
v -0.3 0.1 -0.1
v -0.3 0.2 -0.1
v 0.3 0 -0.1
v 0.3 0.1 -0.1
v 0.3 0.2 -0.1
v 0.4 0 -0.1
v 0.4 0.1 -0.1
v 0.4 0.2 -0.1
v -0.4 0 0.2
v -0.4 0.1 0.2
v -0.4 0.2 0.2
v -0.3 0 0.2
v -0.3 0.1 0.2
v -0.3 0.2 0.2
v 0.3 0 0.2
v 0.3 0.1 0.2
v 0.3 0.2 0.2
v 0.4 0 0.2
v 0.4 0.1 0.2
v 0.4 0.2 0.2
v -0.2 0.5 0.1
v -0.2 0.6 0.1
v -0.2 0.7 0.1
v -0.2 0.8 0.1
v -0.1 0.5 0.1
v -0.1 0.6 0.1
v -0.1 0.7 0.1
v -0.1 0.8 0.1
v 0.1 0.5 0.1
v 0.1 0.6 0.1
v 0.1 0.7 0.1
v 0.1 0.8 0.1
v 0.2 0.5 0.1
v 0.2 0.6 0.1
v 0.2 0.7 0.1
v 0.2 0.8 0.1
v -0.6 0.6 -2.98023e-08
v -0.6 0.8 -2.98023e-08
v -0.6 0.9 -2.98023e-08
v -0.6 1 -2.98023e-08
v -0.6 1.1 -2.98023e-08
v -0.6 1.3 -2.98023e-08
v -0.5 0.5 -2.98023e-08
v -0.5 0.6 -2.98023e-08
v -0.5 0.7 -2.98023e-08
v -0.5 0.8 -2.98023e-08
v -0.5 0.9 -2.98023e-08
v -0.5 1 -2.98023e-08
v -0.5 1.1 -2.98023e-08
v -0.5 1.3 -2.98023e-08
v -0.5 1.4 -2.98023e-08
v -0.4 0 -2.98023e-08
v -0.4 0.1 -2.98023e-08
v -0.4 0.2 -2.98023e-08
v -0.4 0.4 -2.98023e-08
v -0.4 0.5 -2.98023e-08
v -0.4 0.6 -2.98023e-08
v -0.4 0.7 -2.98023e-08
v -0.4 0.8 -2.98023e-08
v -0.4 0.9 -2.98023e-08
v -0.4 1.1 -2.98023e-08
v -0.4 1.3 -2.98023e-08
v -0.4 1.4 -2.98023e-08
v -0.3 0 -2.98023e-08
v -0.3 0.1 -2.98023e-08
v -0.3 0.2 -2.98023e-08
v -0.3 0.4 -2.98023e-08
v -0.3 0.5 -2.98023e-08
v -0.3 0.6 -2.98023e-08
v -0.3 0.8 -2.98023e-08
v 0.3 0 -2.98023e-08
v 0.3 0.1 -2.98023e-08
v 0.3 0.2 -2.98023e-08
v 0.3 0.4 -2.98023e-08
v 0.3 0.5 -2.98023e-08
v 0.3 0.6 -2.98023e-08
v 0.3 0.8 -2.98023e-08
v 0.4 0 -2.98023e-08
v 0.4 0.1 -2.98023e-08
v 0.4 0.2 -2.98023e-08
v 0.4 0.4 -2.98023e-08
v 0.4 0.5 -2.98023e-08
v 0.4 0.6 -2.98023e-08
v 0.4 0.7 -2.98023e-08
v 0.4 0.8 -2.98023e-08
v 0.4 0.9 -2.98023e-08
v 0.4 1.1 -2.98023e-08
v 0.4 1.3 -2.98023e-08
v 0.4 1.4 -2.98023e-08
v 0.5 0.5 -2.98023e-08
v 0.5 0.6 -2.98023e-08
v 0.5 0.7 -2.98023e-08
v 0.5 0.8 -2.98023e-08
v 0.5 0.9 -2.98023e-08
v 0.5 1 -2.98023e-08
v 0.5 1.1 -2.98023e-08
v 0.5 1.3 -2.98023e-08
v 0.5 1.4 -2.98023e-08
v 0.6 0.6 -2.98023e-08
v 0.6 0.8 -2.98023e-08
v 0.6 0.9 -2.98023e-08
v 0.6 1 -2.98023e-08
v 0.6 1.1 -2.98023e-08
v 0.6 1.3 -2.98023e-08
v -0.4 0 -0.2
v -0.4 0.1 -0.2
v -0.4 0.2 -0.2
v -0.3 0 -0.2
v -0.3 0.1 -0.2
v -0.3 0.2 -0.2
v -0.3 0.3 -0.2
v -0.3 0.5 -0.2
v -0.2 0.2 -0.2
v -0.2 0.3 -0.2
v 0.2 0.2 -0.2
v 0.2 0.3 -0.2
v 0.3 0 -0.2
v 0.3 0.1 -0.2
v 0.3 0.2 -0.2
v 0.3 0.3 -0.2
v 0.3 0.5 -0.2
v 0.4 0 -0.2
v 0.4 0.1 -0.2
v 0.4 0.2 -0.2
v -0.4 0 0.3
v -0.3 0 0.3
v 0.3 0 0.3
v 0.4 0 0.3
v -0.4 0 0.2
v -0.3 0 0.2
v 0.3 0 0.2
v 0.4 0 0.2
v -0.4 0 0.1
v -0.3 0 0.1
v 0.3 0 0.1
v 0.4 0 0.1
v -0.4 0 -2.98023e-08
v -0.3 0 -2.98023e-08
v 0.3 0 -2.98023e-08
v 0.4 0 -2.98023e-08
v -0.4 0 -0.1
v -0.3 0 -0.1
v 0.3 0 -0.1
v 0.4 0 -0.1
v -0.4 0 -0.2
v -0.3 0 -0.2
v 0.3 0 -0.2
v 0.4 0 -0.2
v -0.3 0.2 0.3
v 0.3 0.2 0.3
v -0.3 0.2 0.2
v 0.3 0.2 0.2
v -0.3 0.2 0.1
v 0.3 0.2 0.1
v -0.3 0.2 -2.98023e-08
v 0.3 0.2 -2.98023e-08
v -0.3 0.2 -0.1
v -0.2 0.2 -0.1
v 0.2 0.2 -0.1
v 0.3 0.2 -0.1
v -0.3 0.2 -0.2
v -0.2 0.2 -0.2
v 0.2 0.2 -0.2
v 0.3 0.2 -0.2
v -0.4 0.4 0.1
v -0.3 0.4 0.1
v 0.3 0.4 0.1
v 0.4 0.4 0.1
v -0.4 0.4 -2.98023e-08
v -0.3 0.4 -2.98023e-08
v 0.3 0.4 -2.98023e-08
v 0.4 0.4 -2.98023e-08
v -0.5 0.5 0.1
v -0.4 0.5 0.1
v 0.4 0.5 0.1
v 0.5 0.5 0.1
v -0.5 0.5 -2.98023e-08
v -0.4 0.5 -2.98023e-08
v 0.4 0.5 -2.98023e-08
v 0.5 0.5 -2.98023e-08
v -0.6 0.6 0.1
v -0.5 0.6 0.1
v -0.4 0.6 0.1
v -0.3 0.6 0.1
v 0.3 0.6 0.1
v 0.4 0.6 0.1
v 0.5 0.6 0.1
v 0.6 0.6 0.1
v -0.6 0.6 -2.98023e-08
v -0.5 0.6 -2.98023e-08
v -0.4 0.6 -2.98023e-08
v -0.3 0.6 -2.98023e-08
v 0.3 0.6 -2.98023e-08
v 0.4 0.6 -2.98023e-08
v 0.5 0.6 -2.98023e-08
v 0.6 0.6 -2.98023e-08
v -0.6 0.9 0.1
v -0.5 0.9 0.1
v 0.5 0.9 0.1
v 0.6 0.9 0.1
v -0.6 0.9 -2.98023e-08
v -0.5 0.9 -2.98023e-08
v 0.5 0.9 -2.98023e-08
v 0.6 0.9 -2.98023e-08
v -0.4 0.2 0.3
v -0.3 0.2 0.3
v 0.3 0.2 0.3
v 0.4 0.2 0.3
v -0.4 0.2 0.2
v -0.3 0.2 0.2
v 0.3 0.2 0.2
v 0.4 0.2 0.2
v -0.4 0.2 0.1
v -0.3 0.2 0.1
v 0.3 0.2 0.1
v 0.4 0.2 0.1
v -0.4 0.2 -2.98023e-08
v -0.3 0.2 -2.98023e-08
v 0.3 0.2 -2.98023e-08
v 0.4 0.2 -2.98023e-08
v -0.4 0.2 -0.1
v -0.3 0.2 -0.1
v 0.3 0.2 -0.1
v 0.4 0.2 -0.1
v -0.4 0.2 -0.2
v -0.3 0.2 -0.2
v 0.3 0.2 -0.2
v 0.4 0.2 -0.2
v -0.3 0.5 0.3
v -0.2 0.5 0.3
v 0.2 0.5 0.3
v 0.3 0.5 0.3
v -0.3 0.5 0.2
v -0.2 0.5 0.2
v -0.1 0.5 0.2
v 0.1 0.5 0.2
v 0.2 0.5 0.2
v 0.3 0.5 0.2
v -0.4 0.5 0.1
v -0.3 0.5 0.1
v -0.2 0.5 0.1
v -0.1 0.5 0.1
v 0.1 0.5 0.1
v 0.2 0.5 0.1
v 0.3 0.5 0.1
v 0.4 0.5 0.1
v -0.4 0.5 -2.98023e-08
v -0.3 0.5 -2.98023e-08
v 0.3 0.5 -2.98023e-08
v 0.4 0.5 -2.98023e-08
v -0.3 0.5 -0.2
v 0.3 0.5 -0.2
v -0.2 0.8 0.2
v -0.1 0.8 0.2
v 0.1 0.8 0.2
v 0.2 0.8 0.2
v -0.6 0.8 0.1
v -0.5 0.8 0.1
v -0.4 0.8 0.1
v -0.3 0.8 0.1
v -0.2 0.8 0.1
v -0.1 0.8 0.1
v 0.1 0.8 0.1
v 0.2 0.8 0.1
v 0.3 0.8 0.1
v 0.4 0.8 0.1
v 0.5 0.8 0.1
v 0.6 0.8 0.1
v -0.6 0.8 -2.98023e-08
v -0.5 0.8 -2.98023e-08
v -0.4 0.8 -2.98023e-08
v -0.3 0.8 -2.98023e-08
v 0.3 0.8 -2.98023e-08
v 0.4 0.8 -2.98023e-08
v 0.5 0.8 -2.98023e-08
v 0.6 0.8 -2.98023e-08
v -0.6 1.3 0.1
v -0.5 1.3 0.1
v 0.5 1.3 0.1
v 0.6 1.3 0.1
v -0.6 1.3 -2.98023e-08
v -0.5 1.3 -2.98023e-08
v 0.5 1.3 -2.98023e-08
v 0.6 1.3 -2.98023e-08
v -0.5 1.4 0.1
v -0.4 1.4 0.1
v 0.4 1.4 0.1
v 0.5 1.4 0.1
v -0.5 1.4 -2.98023e-08
v -0.4 1.4 -2.98023e-08
v 0.4 1.4 -2.98023e-08
v 0.5 1.4 -2.98023e-08

# faces
f 3/4/1 2/4/1 1/4/1
f 4/4/1 2/4/1 3/4/1
f 7/11/1 6/11/1 5/11/1
f 8/11/1 6/11/1 7/11/1
f 9/9/1 8/9/1 7/9/1
f 10/9/1 8/9/1 9/9/1
f 11/8/1 10/8/1 9/8/1
f 12/8/1 10/8/1 11/8/1
f 15/4/1 14/4/1 13/4/1
f 16/4/1 14/4/1 15/4/1
f 19/7/1 18/7/1 17/7/1
f 20/7/1 18/7/1 19/7/1
f 23/8/1 22/8/1 21/8/1
f 24/8/1 22/8/1 23/8/1
f 31/1/1 26/1/1 25/1/1
f 32/1/1 26/1/1 31/1/1
f 33/1/1 28/1/1 27/1/1
f 34/1/1 28/1/1 33/1/1
f 35/1/1 30/1/1 29/1/1
f 36/1/1 30/1/1 35/1/1
f 37/4/1 32/4/1 31/4/1
f 38/4/1 32/4/1 37/4/1
f 39/4/1 34/4/1 33/4/1
f 40/4/1 34/4/1 39/4/1
f 41/4/1 36/4/1 35/4/1
f 42/4/1 36/4/1 41/4/1
f 45/4/1 44/4/1 43/4/1
f 46/4/1 44/4/1 45/4/1
f 53/4/1 48/4/1 47/4/1
f 53/5/1 52/5/1 51/5/1
f 53/4/1 51/4/1 50/4/1
f 53/4/1 50/4/1 49/4/1
f 53/4/1 49/4/1 48/4/1
f 54/5/1 52/5/1 53/5/1
f 55/4/1 53/4/1 47/4/1
f 55/4/1 54/4/1 53/4/1
f 56/4/1 54/4/1 55/4/1
f 57/4/1 54/4/1 56/4/1
f 58/4/1 54/4/1 57/4/1
f 59/2/1 56/2/1 55/2/1
f 60/4/1 57/4/1 56/4/1
f 60/2/1 56/2/1 59/2/1
f 61/4/1 57/4/1 60/4/1
f 62/4/1 54/4/1 58/4/1
f 63/4/1 54/4/1 62/4/1
f 66/6/1 65/6/1 64/6/1
f 67/6/1 65/6/1 66/6/1
f 68/3/1 67/3/1 66/3/1
f 69/3/1 67/3/1 68/3/1
f 70/8/1 69/8/1 68/8/1
f 71/8/1 69/8/1 70/8/1
f 74/6/1 73/6/1 72/6/1
f 75/6/1 73/6/1 74/6/1
f 76/3/1 75/3/1 74/3/1
f 77/3/1 75/3/1 76/3/1
f 78/8/1 77/8/1 76/8/1
f 79/8/1 77/8/1 78/8/1
f 86/1/1 81/1/1 80/1/1
f 87/1/1 81/1/1 86/1/1
f 88/1/1 83/1/1 82/1/1
f 89/1/1 83/1/1 88/1/1
f 90/1/1 85/1/1 84/1/1
f 91/1/1 85/1/1 90/1/1
f 92/4/1 87/4/1 86/4/1
f 93/4/1 87/4/1 92/4/1
f 94/4/1 89/4/1 88/4/1
f 95/4/1 89/4/1 94/4/1
f 96/4/1 91/4/1 90/4/1
f 97/4/1 91/4/1 96/4/1
f 100/4/1 99/4/1 98/4/1
f 101/4/1 99/4/1 100/4/1
f 104/4/1 103/4/1 102/4/1
f 105/4/1 103/4/1 104/4/1
f 108/7/1 107/7/1 106/7/1
f 109/7/1 107/7/1 108/7/1
f 110/12/1 109/12/1 108/12/1
f 111/12/1 109/12/1 110/12/1
f 112/13/1 111/13/1 110/13/1
f 113/13/1 111/13/1 112/13/1
f 114/8/1 113/8/1 112/8/1
f 115/8/1 113/8/1 114/8/1
f 116/4/2 117/4/2 118/4/2
f 118/4/2 117/4/2 119/4/2
f 120/7/2 121/7/2 122/7/2
f 122/7/2 121/7/2 123/7/2
f 122/12/2 123/12/2 124/12/2
f 124/12/2 123/12/2 125/12/2
f 124/13/2 125/13/2 126/13/2
f 126/13/2 125/13/2 127/13/2
f 126/8/2 127/8/2 128/8/2
f 128/8/2 127/8/2 129/8/2
f 130/1/2 131/1/2 136/1/2
f 136/1/2 131/1/2 137/1/2
f 132/1/2 133/1/2 138/1/2
f 138/1/2 133/1/2 139/1/2
f 134/1/2 135/1/2 140/1/2
f 140/1/2 135/1/2 141/1/2
f 136/4/2 137/4/2 142/4/2
f 142/4/2 137/4/2 143/4/2
f 138/4/2 139/4/2 144/4/2
f 144/4/2 139/4/2 145/4/2
f 140/4/2 141/4/2 146/4/2
f 146/4/2 141/4/2 147/4/2
f 148/4/2 149/4/2 150/4/2
f 150/4/2 149/4/2 151/4/2
f 152/6/2 153/6/2 154/6/2
f 154/6/2 153/6/2 155/6/2
f 154/3/2 155/3/2 156/3/2
f 156/3/2 155/3/2 157/3/2
f 156/8/2 157/8/2 158/8/2
f 158/8/2 157/8/2 159/8/2
f 160/6/2 161/6/2 162/6/2
f 162/6/2 161/6/2 163/6/2
f 162/3/2 163/3/2 164/3/2
f 164/3/2 163/3/2 165/3/2
f 164/8/2 165/8/2 166/8/2
f 166/8/2 165/8/2 167/8/2
f 168/4/2 169/4/2 174/4/2
f 172/5/2 173/5/2 174/5/2
f 171/4/2 172/4/2 174/4/2
f 170/4/2 171/4/2 174/4/2
f 169/4/2 170/4/2 174/4/2
f 174/5/2 173/5/2 175/5/2
f 168/4/2 174/4/2 176/4/2
f 174/4/2 175/4/2 176/4/2
f 176/4/2 175/4/2 177/4/2
f 177/4/2 175/4/2 178/4/2
f 178/4/2 175/4/2 179/4/2
f 176/2/2 177/2/2 180/2/2
f 177/4/2 178/4/2 181/4/2
f 180/2/2 177/2/2 181/2/2
f 181/4/2 178/4/2 182/4/2
f 179/4/2 175/4/2 183/4/2
f 183/4/2 175/4/2 184/4/2
f 185/1/2 186/1/2 191/1/2
f 191/1/2 186/1/2 192/1/2
f 187/1/2 188/1/2 193/1/2
f 193/1/2 188/1/2 194/1/2
f 189/1/2 190/1/2 195/1/2
f 195/1/2 190/1/2 196/1/2
f 191/4/2 192/4/2 197/4/2
f 197/4/2 192/4/2 198/4/2
f 193/4/2 194/4/2 199/4/2
f 199/4/2 194/4/2 200/4/2
f 195/4/2 196/4/2 201/4/2
f 201/4/2 196/4/2 202/4/2
f 203/4/2 204/4/2 205/4/2
f 205/4/2 204/4/2 206/4/2
f 207/4/2 208/4/2 209/4/2
f 209/4/2 208/4/2 210/4/2
f 211/7/2 212/7/2 213/7/2
f 213/7/2 212/7/2 214/7/2
f 215/8/2 216/8/2 217/8/2
f 217/8/2 216/8/2 218/8/2
f 219/4/2 220/4/2 221/4/2
f 221/4/2 220/4/2 222/4/2
f 223/10/2 224/10/2 225/10/2
f 225/10/2 224/10/2 226/10/2
f 225/9/2 226/9/2 227/9/2
f 227/9/2 226/9/2 228/9/2
f 227/8/2 228/8/2 229/8/2
f 229/8/2 228/8/2 230/8/2
f 234/1/3 232/1/3 231/1/3
f 235/4/3 233/4/3 232/4/3
f 235/1/3 232/1/3 234/1/3
f 236/4/3 233/4/3 235/4/3
f 239/2/3 238/2/3 237/2/3
f 239/4/3 237/4/3 236/4/3
f 240/2/3 238/2/3 239/2/3
f 241/4/3 239/4/3 236/4/3
f 241/4/3 240/4/3 239/4/3
f 242/4/3 240/4/3 241/4/3
f 245/4/3 241/4/3 236/4/3
f 246/2/3 242/2/3 241/2/3
f 246/4/3 241/4/3 245/4/3
f 247/2/3 242/2/3 246/2/3
f 248/1/3 244/1/3 243/1/3
f 249/4/3 245/4/3 244/4/3
f 249/1/3 244/1/3 248/1/3
f 250/4/3 245/4/3 249/4/3
f 255/6/3 252/6/3 251/6/3
f 256/3/3 253/3/3 252/3/3
f 256/6/3 252/6/3 255/6/3
f 257/8/3 254/8/3 253/8/3
f 257/3/3 253/3/3 256/3/3
f 258/8/3 254/8/3 257/8/3
f 263/6/3 260/6/3 259/6/3
f 264/3/3 261/3/3 260/3/3
f 264/6/3 260/6/3 263/6/3
f 265/8/3 262/8/3 261/8/3
f 265/3/3 261/3/3 264/3/3
f 266/8/3 262/8/3 265/8/3
f 274/4/3 268/4/3 267/4/3
f 275/4/3 268/4/3 274/4/3
f 276/4/3 268/4/3 275/4/3
f 277/11/3 270/11/3 269/11/3
f 278/9/3 271/9/3 270/9/3
f 278/11/3 270/11/3 277/11/3
f 279/8/3 272/8/3 271/8/3
f 279/9/3 271/9/3 278/9/3
f 280/8/3 272/8/3 279/8/3
f 286/4/3 274/4/3 273/4/3
f 286/4/3 275/4/3 274/4/3
f 287/4/3 275/4/3 286/4/3
f 288/7/3 276/7/3 275/7/3
f 288/4/3 275/4/3 287/4/3
f 288/7/3 277/7/3 276/7/3
f 289/7/3 277/7/3 288/7/3
f 290/12/3 278/12/3 277/12/3
f 290/7/3 277/7/3 289/7/3
f 290/12/3 279/12/3 278/12/3
f 291/13/3 280/13/3 279/13/3
f 291/12/3 279/12/3 290/12/3
f 292/8/3 281/8/3 280/8/3
f 292/13/3 280/13/3 291/13/3
f 293/8/3 281/8/3 292/8/3
f 294/1/3 283/1/3 282/1/3
f 295/4/3 284/4/3 283/4/3
f 295/1/3 283/1/3 294/1/3
f 296/4/3 284/4/3 295/4/3
f 297/4/3 286/4/3 285/4/3
f 298/4/3 286/4/3 297/4/3
f 299/4/3 289/4/3 288/4/3
f 299/4/3 288/4/3 287/4/3
f 300/4/3 289/4/3 299/4/3
f 308/1/3 302/1/3 301/1/3
f 309/4/3 303/4/3 302/4/3
f 309/1/3 302/1/3 308/1/3
f 310/4/3 303/4/3 309/4/3
f 311/4/3 305/4/3 304/4/3
f 312/4/3 305/4/3 311/4/3
f 313/4/3 307/4/3 306/4/3
f 314/4/3 307/4/3 313/4/3
f 315/4/3 307/4/3 314/4/3
f 320/4/3 313/4/3 312/4/3
f 320/4/3 314/4/3 313/4/3
f 321/4/3 314/4/3 320/4/3
f 322/7/3 315/7/3 314/7/3
f 322/4/3 314/4/3 321/4/3
f 322/7/3 316/7/3 315/7/3
f 323/7/3 316/7/3 322/7/3
f 324/12/3 317/12/3 316/12/3
f 324/7/3 316/7/3 323/7/3
f 325/12/3 317/12/3 324/12/3
f 326/13/3 318/13/3 317/13/3
f 326/12/3 317/12/3 325/12/3
f 327/8/3 319/8/3 318/8/3
f 327/13/3 318/13/3 326/13/3
f 328/8/3 319/8/3 327/8/3
f 329/4/3 323/4/3 322/4/3
f 329/4/3 322/4/3 321/4/3
f 330/4/3 323/4/3 329/4/3
f 331/10/3 325/10/3 324/10/3
f 332/9/3 326/9/3 325/9/3
f 332/10/3 325/10/3 331/10/3
f 333/8/3 327/8/3 326/8/3
f 333/9/3 326/9/3 332/9/3
f 334/8/3 327/8/3 333/8/3
f 338/1/3 336/1/3 335/1/3
f 339/4/3 337/4/3 336/4/3
f 339/1/3 336/1/3 338/1/3
f 340/4/3 337/4/3 339/4/3
f 344/1/3 342/1/3 341/1/3
f 345/4/3 343/4/3 342/4/3
f 345/1/3 342/1/3 344/1/3
f 346/4/3 343/4/3 345/4/3
f 347/1/4 348/1/4 350/1/4
f 348/4/4 349/4/4 351/4/4
f 350/1/4 348/1/4 351/1/4
f 351/4/4 349/4/4 352/4/4
f 353/1/4 354/1/4 356/1/4
f 354/4/4 355/4/4 357/4/4
f 356/1/4 354/1/4 357/1/4
f 357/4/4 355/4/4 358/4/4
f 359/6/4 360/6/4 363/6/4
f 360/3/4 361/3/4 364/3/4
f 363/6/4 360/6/4 364/6/4
f 361/8/4 362/8/4 365/8/4
f 364/3/4 361/3/4 365/3/4
f 365/8/4 362/8/4 366/8/4
f 367/6/4 368/6/4 371/6/4
f 368/3/4 369/3/4 372/3/4
f 371/6/4 368/6/4 372/6/4
f 369/8/4 370/8/4 373/8/4
f 372/3/4 369/3/4 373/3/4
f 373/8/4 370/8/4 374/8/4
f 375/4/4 376/4/4 382/4/4
f 382/4/4 376/4/4 383/4/4
f 383/4/4 376/4/4 384/4/4
f 377/11/4 378/11/4 385/11/4
f 378/9/4 379/9/4 386/9/4
f 385/11/4 378/11/4 386/11/4
f 379/8/4 380/8/4 387/8/4
f 386/9/4 379/9/4 387/9/4
f 387/8/4 380/8/4 388/8/4
f 381/4/4 382/4/4 394/4/4
f 382/4/4 383/4/4 394/4/4
f 394/4/4 383/4/4 395/4/4
f 383/7/4 384/7/4 396/7/4
f 395/4/4 383/4/4 396/4/4
f 384/7/4 385/7/4 396/7/4
f 396/7/4 385/7/4 397/7/4
f 385/12/4 386/12/4 398/12/4
f 397/7/4 385/7/4 398/7/4
f 386/12/4 387/12/4 398/12/4
f 387/13/4 388/13/4 399/13/4
f 398/12/4 387/12/4 399/12/4
f 388/8/4 389/8/4 400/8/4
f 399/13/4 388/13/4 400/13/4
f 400/8/4 389/8/4 401/8/4
f 390/1/4 391/1/4 402/1/4
f 391/4/4 392/4/4 403/4/4
f 402/1/4 391/1/4 403/1/4
f 403/4/4 392/4/4 404/4/4
f 393/4/4 394/4/4 405/4/4
f 405/4/4 394/4/4 406/4/4
f 396/4/4 397/4/4 407/4/4
f 395/4/4 396/4/4 407/4/4
f 407/4/4 397/4/4 408/4/4
f 409/1/4 410/1/4 416/1/4
f 410/4/4 411/4/4 417/4/4
f 416/1/4 410/1/4 417/1/4
f 417/4/4 411/4/4 418/4/4
f 412/4/4 413/4/4 419/4/4
f 419/4/4 413/4/4 420/4/4
f 414/4/4 415/4/4 421/4/4
f 421/4/4 415/4/4 422/4/4
f 422/4/4 415/4/4 423/4/4
f 420/4/4 421/4/4 428/4/4
f 421/4/4 422/4/4 428/4/4
f 428/4/4 422/4/4 429/4/4
f 422/7/4 423/7/4 430/7/4
f 429/4/4 422/4/4 430/4/4
f 423/7/4 424/7/4 430/7/4
f 430/7/4 424/7/4 431/7/4
f 424/12/4 425/12/4 432/12/4
f 431/7/4 424/7/4 432/7/4
f 432/12/4 425/12/4 433/12/4
f 425/13/4 426/13/4 434/13/4
f 433/12/4 425/12/4 434/12/4
f 426/8/4 427/8/4 435/8/4
f 434/13/4 426/13/4 435/13/4
f 435/8/4 427/8/4 436/8/4
f 430/4/4 431/4/4 437/4/4
f 429/4/4 430/4/4 437/4/4
f 437/4/4 431/4/4 438/4/4
f 432/10/4 433/10/4 439/10/4
f 433/9/4 434/9/4 440/9/4
f 439/10/4 433/10/4 440/10/4
f 434/8/4 435/8/4 441/8/4
f 440/9/4 434/9/4 441/9/4
f 441/8/4 435/8/4 442/8/4
f 443/1/4 444/1/4 446/1/4
f 444/4/4 445/4/4 447/4/4
f 446/1/4 444/1/4 447/1/4
f 447/4/4 445/4/4 448/4/4
f 448/5/4 449/5/4 451/5/4
f 449/4/4 450/4/4 452/4/4
f 451/5/4 449/5/4 452/5/4
f 451/4/4 452/4/4 453/4/4
f 452/4/4 450/4/4 454/4/4
f 453/4/4 452/4/4 454/4/4
f 453/5/4 454/5/4 457/5/4
f 454/4/4 450/4/4 458/4/4
f 457/5/4 454/5/4 458/5/4
f 458/4/4 450/4/4 459/4/4
f 455/1/4 456/1/4 460/1/4
f 456/4/4 457/4/4 461/4/4
f 460/1/4 456/1/4 461/1/4
f 461/4/4 457/4/4 462/4/4
f 467/1/5 464/1/5 463/1/5
f 468/1/5 464/1/5 467/1/5
f 469/1/5 466/1/5 465/1/5
f 470/1/5 466/1/5 469/1/5
f 475/1/5 472/1/5 471/1/5
f 476/1/5 472/1/5 475/1/5
f 477/1/5 474/1/5 473/1/5
f 478/1/5 474/1/5 477/1/5
f 483/1/5 480/1/5 479/1/5
f 484/1/5 480/1/5 483/1/5
f 485/1/5 482/1/5 481/1/5
f 486/1/5 482/1/5 485/1/5
f 489/4/5 488/4/5 487/4/5
f 490/4/5 488/4/5 489/4/5
f 491/4/5 490/4/5 489/4/5
f 492/4/5 490/4/5 491/4/5
f 493/4/5 492/4/5 491/4/5
f 494/4/5 492/4/5 493/4/5
f 495/4/5 494/4/5 493/4/5
f 496/4/5 494/4/5 495/4/5
f 497/4/5 494/4/5 496/4/5
f 498/4/5 494/4/5 497/4/5
f 499/5/5 496/5/5 495/5/5
f 500/4/5 497/4/5 496/4/5
f 500/5/5 496/5/5 499/5/5
f 501/5/5 498/5/5 497/5/5
f 501/4/5 497/4/5 500/4/5
f 502/5/5 498/5/5 501/5/5
f 507/4/5 504/4/5 503/4/5
f 508/4/5 504/4/5 507/4/5
f 509/4/5 506/4/5 505/4/5
f 510/4/5 506/4/5 509/4/5
f 515/4/5 512/4/5 511/4/5
f 516/4/5 512/4/5 515/4/5
f 517/4/5 514/4/5 513/4/5
f 518/4/5 514/4/5 517/4/5
f 527/4/5 520/4/5 519/4/5
f 528/4/5 520/4/5 527/4/5
f 529/4/5 522/4/5 521/4/5
f 530/4/5 522/4/5 529/4/5
f 531/4/5 524/4/5 523/4/5
f 532/4/5 524/4/5 531/4/5
f 533/4/5 526/4/5 525/4/5
f 534/4/5 526/4/5 533/4/5
f 539/11/5 536/11/5 535/11/5
f 540/11/5 536/11/5 539/11/5
f 541/10/5 538/10/5 537/10/5
f 542/10/5 538/10/5 541/10/5
f 543/4/6 544/4/6 547/4/6
f 547/4/6 544/4/6 548/4/6
f 545/4/6 546/4/6 549/4/6
f 549/4/6 546/4/6 550/4/6
f 551/4/6 552/4/6 555/4/6
f 555/4/6 552/4/6 556/4/6
f 553/4/6 554/4/6 557/4/6
f 557/4/6 554/4/6 558/4/6
f 559/4/6 560/4/6 563/4/6
f 563/4/6 560/4/6 564/4/6
f 561/4/6 562/4/6 565/4/6
f 565/4/6 562/4/6 566/4/6
f 567/2/6 568/2/6 571/2/6
f 568/4/6 569/4/6 572/4/6
f 571/2/6 568/2/6 572/2/6
f 572/4/6 569/4/6 573/4/6
f 573/4/6 569/4/6 574/4/6
f 569/2/6 570/2/6 575/2/6
f 574/4/6 569/4/6 575/4/6
f 575/2/6 570/2/6 576/2/6
f 571/4/6 572/4/6 578/4/6
f 578/4/6 572/4/6 579/4/6
f 573/4/6 574/4/6 580/4/6
f 580/4/6 574/4/6 581/4/6
f 575/4/6 576/4/6 582/4/6
f 582/4/6 576/4/6 583/4/6
f 578/4/6 579/4/6 585/4/6
f 583/4/6 584/4/6 585/4/6
f 581/4/6 582/4/6 585/4/6
f 580/4/6 581/4/6 585/4/6
f 579/4/6 580/4/6 585/4/6
f 582/4/6 583/4/6 585/4/6
f 577/4/6 578/4/6 585/4/6
f 585/4/6 584/4/6 586/4/6
f 586/4/6 584/4/6 587/4/6
f 587/4/6 584/4/6 588/4/6
f 586/4/6 587/4/6 589/4/6
f 589/4/6 587/4/6 590/4/6
f 591/8/6 592/8/6 599/8/6
f 599/8/6 592/8/6 600/8/6
f 593/8/6 594/8/6 601/8/6
f 601/8/6 594/8/6 602/8/6
f 595/4/6 596/4/6 607/4/6
f 607/4/6 596/4/6 608/4/6
f 597/4/6 598/4/6 609/4/6
f 609/4/6 598/4/6 610/4/6
f 603/4/6 604/4/6 611/4/6
f 611/4/6 604/4/6 612/4/6
f 605/4/6 606/4/6 613/4/6
f 613/4/6 606/4/6 614/4/6
f 615/8/6 616/8/6 619/8/6
f 619/8/6 616/8/6 620/8/6
f 617/8/6 618/8/6 621/8/6
f 621/8/6 618/8/6 622/8/6
f 623/8/6 624/8/6 627/8/6
f 627/8/6 624/8/6 628/8/6
f 625/8/6 626/8/6 629/8/6
f 629/8/6 626/8/6 630/8/6
