# MagicaVoxel @ Ephtracy

# group
o 

# material
mtllib ikkisand.mtl
usemtl palette

# normals
vn -1 0 0
vn 1 0 0
vn 0 0 1
vn 0 0 -1
vn 0 -1 0
vn 0 1 0

# texcoords
vt 0.00585938 0.5
vt 0.0332031 0.5
vt 0.314453 0.5
vt 0.595703 0.5

# verts
v -0.5 0 0.5
v -0.5 0 -0.5
v -0.5 0.2 -0.3
v -0.5 0.2 -0.5
v -0.5 0.3 0.2
v -0.5 0.3 0.1
v -0.5 0.3 -0.2
v -0.5 0.3 -0.3
v -0.5 0.4 0.5
v -0.5 0.4 0.3
v -0.5 0.4 0.1
v -0.5 0.4 0
v -0.5 0.4 -0.1
v -0.5 0.4 -0.2
v -0.5 0.5 0.3
v -0.5 0.5 0.2
v -0.5 0.5 0
v -0.5 0.5 -0.1
v -0.5 0.5 -0.4
v -0.5 0.5 -0.5
v -0.5 0.6 0.5
v -0.5 0.6 0.4
v -0.5 0.6 0.3
v -0.5 0.6 0
v -0.5 0.6 -0.1
v -0.5 0.7 0.4
v -0.5 0.7 0.3
v -0.5 0.7 0.2
v -0.5 0.7 0.1
v -0.5 0.7 0
v -0.5 0.7 -0.1
v -0.5 0.7 -0.2
v -0.5 0.7 -0.3
v -0.5 0.7 -0.4
v -0.5 0.8 0.4
v -0.5 0.8 0.3
v -0.5 0.8 0.2
v -0.5 0.8 0.1
v -0.5 0.8 0
v -0.5 0.8 -0.1
v -0.5 0.8 -0.2
v -0.5 0.8 -0.3
v -0.5 0.8 -0.4
v -0.5 0.8 -0.5
v -0.5 0.9 0.4
v -0.5 0.9 0.3
v -0.5 0.9 -0.1
v -0.5 0.9 -0.2
v -0.5 0.9 -0.4
v -0.5 0.9 -0.5
v -0.5 1 0.5
v -0.5 1 -0.5
v 0.5 0 0.5
v 0.5 0 -0.5
v 0.5 0.2 0.5
v 0.5 0.2 0.3
v 0.5 0.2 0.1
v 0.5 0.2 -0.1
v 0.5 0.2 -0.3
v 0.5 0.2 -0.4
v 0.5 0.3 0.2
v 0.5 0.3 0.1
v 0.5 0.3 -0.1
v 0.5 0.3 -0.3
v 0.5 0.4 0.3
v 0.5 0.4 0.2
v 0.5 0.4 -0.4
v 0.5 0.4 -0.5
v 0.5 0.5 0.2
v 0.5 0.5 0.1
v 0.5 0.6 0.5
v 0.5 0.6 0.4
v 0.5 0.6 0.3
v 0.5 0.6 0.2
v 0.5 0.6 0.1
v 0.5 0.6 -0.2
v 0.5 0.6 -0.3
v 0.5 0.7 0.4
v 0.5 0.7 0.3
v 0.5 0.7 0.2
v 0.5 0.7 0.1
v 0.5 0.7 0
v 0.5 0.7 -0.1
v 0.5 0.7 -0.2
v 0.5 0.7 -0.3
v 0.5 0.7 -0.4
v 0.5 0.7 -0.5
v 0.5 0.8 0.3
v 0.5 0.8 0.2
v 0.5 0.8 0
v 0.5 0.8 -0.1
v 0.5 0.8 -0.2
v 0.5 0.8 -0.3
v 0.5 0.8 -0.4
v 0.5 1 0.5
v 0.5 1 -0.5
v -0.5 0 0.5
v -0.5 0.4 0.5
v -0.5 0.6 0.5
v -0.5 1 0.5
v -0.4 0.3 0.5
v -0.4 0.4 0.5
v -0.4 0.6 0.5
v -0.4 0.7 0.5
v -0.4 0.8 0.5
v -0.3 0.7 0.5
v -0.3 0.8 0.5
v -0.2 0.2 0.5
v -0.2 0.3 0.5
v -0.1 0.2 0.5
v -0.1 0.4 0.5
v -0.1 0.6 0.5
v -0.1 0.7 0.5
v -0.1 0.8 0.5
v -0.1 0.9 0.5
v 0 0.4 0.5
v 0 0.5 0.5
v 0 0.6 0.5
v 0 0.7 0.5
v 0 0.8 0.5
v 0 0.9 0.5
v 0.1 0.3 0.5
v 0.1 0.5 0.5
v 0.1 0.6 0.5
v 0.1 0.7 0.5
v 0.2 0.2 0.5
v 0.2 0.3 0.5
v 0.2 0.6 0.5
v 0.2 0.8 0.5
v 0.3 0.2 0.5
v 0.3 0.3 0.5
v 0.3 0.7 0.5
v 0.3 0.8 0.5
v 0.3 0.9 0.5
v 0.4 0.2 0.5
v 0.4 0.3 0.5
v 0.4 0.6 0.5
v 0.4 0.7 0.5
v 0.4 0.8 0.5
v 0.4 0.9 0.5
v 0.5 0 0.5
v 0.5 0.2 0.5
v 0.5 0.6 0.5
v 0.5 1 0.5
v -0.5 0 -0.5
v -0.5 0.2 -0.5
v -0.5 0.5 -0.5
v -0.5 0.8 -0.5
v -0.5 0.9 -0.5
v -0.5 1 -0.5
v -0.4 0.5 -0.5
v -0.4 0.6 -0.5
v -0.4 0.8 -0.5
v -0.4 0.9 -0.5
v -0.3 0.2 -0.5
v -0.3 0.3 -0.5
v -0.3 0.6 -0.5
v -0.3 0.7 -0.5
v -0.2 0.3 -0.5
v -0.2 0.4 -0.5
v -0.2 0.6 -0.5
v -0.2 0.7 -0.5
v -0.1 0.3 -0.5
v -0.1 0.4 -0.5
v -0.1 0.6 -0.5
v -0.1 0.7 -0.5
v -0.1 0.8 -0.5
v -0.1 0.9 -0.5
v 0 0.3 -0.5
v 0 0.4 -0.5
v 0 0.6 -0.5
v 0 0.7 -0.5
v 0 0.8 -0.5
v 0 0.9 -0.5
v 0.1 0.2 -0.5
v 0.1 0.4 -0.5
v 0.1 0.6 -0.5
v 0.1 0.7 -0.5
v 0.2 0.6 -0.5
v 0.2 0.7 -0.5
v 0.3 0.2 -0.5
v 0.3 0.4 -0.5
v 0.3 0.6 -0.5
v 0.3 0.7 -0.5
v 0.3 0.8 -0.5
v 0.3 0.9 -0.5
v 0.4 0.7 -0.5
v 0.4 0.8 -0.5
v 0.4 0.9 -0.5
v 0.5 0 -0.5
v 0.5 0.4 -0.5
v 0.5 0.7 -0.5
v 0.5 1 -0.5
v -0.5 0 0.5
v 0.5 0 0.5
v -0.4 0 0.4
v 0.4 0 0.4
v -0.4 0 -0.4
v 0.4 0 -0.4
v -0.5 0 -0.5
v 0.5 0 -0.5
v -0.5 1 0.5
v 0.5 1 0.5
v -0.4 1 0.4
v -0.3 1 0.4
v -0.2 1 0.4
v -0.1 1 0.4
v 0.2 1 0.4
v 0.3 1 0.4
v -0.4 1 0.3
v -0.3 1 0.3
v -0.2 1 0.3
v -0.1 1 0.3
v 0.1 1 0.3
v 0.2 1 0.3
v 0.3 1 0.3
v 0.4 1 0.3
v -0.4 1 0.2
v -0.3 1 0.2
v -0.2 1 0.2
v 0 1 0.2
v 0.1 1 0.2
v 0.2 1 0.2
v 0.3 1 0.2
v 0.4 1 0.2
v 0 1 0.1
v 0.1 1 0.1
v -0.4 1 0
v -0.3 1 0
v -0.2 1 0
v -0.1 1 0
v 0.1 1 0
v 0.2 1 0
v -0.2 1 -0.1
v -0.1 1 -0.1
v 0 1 -0.1
v 0.1 1 -0.1
v 0.2 1 -0.1
v 0.3 1 -0.1
v 0.4 1 -0.1
v -0.4 1 -0.2
v -0.3 1 -0.2
v 0 1 -0.2
v 0.1 1 -0.2
v 0.3 1 -0.2
v 0.4 1 -0.2
v -0.4 1 -0.3
v -0.3 1 -0.3
v -0.1 1 -0.3
v 0 1 -0.3
v 0.2 1 -0.3
v -0.3 1 -0.4
v -0.1 1 -0.4
v 0 1 -0.4
v 0.2 1 -0.4
v -0.5 1 -0.5
v 0.5 1 -0.5

# faces
f 3/2/1 2/2/1 1/2/1
f 4/2/1 2/2/1 3/2/1
f 5/2/1 3/2/1 1/2/1
f 6/2/1 3/2/1 5/2/1
f 7/2/1 3/2/1 6/2/1
f 8/1/1 4/1/1 3/1/1
f 8/2/1 3/2/1 7/2/1
f 9/2/1 5/2/1 1/2/1
f 10/2/1 5/2/1 9/2/1
f 11/2/1 7/2/1 6/2/1
f 11/1/1 6/1/1 5/1/1
f 12/2/1 7/2/1 11/2/1
f 13/2/1 7/2/1 12/2/1
f 14/1/1 8/1/1 7/1/1
f 14/2/1 7/2/1 13/2/1
f 15/2/1 5/2/1 10/2/1
f 15/1/1 10/1/1 9/1/1
f 16/1/1 11/1/1 5/1/1
f 16/2/1 5/2/1 15/2/1
f 16/1/1 12/1/1 11/1/1
f 17/2/1 13/2/1 12/2/1
f 17/1/1 12/1/1 16/1/1
f 18/1/1 14/1/1 13/1/1
f 18/2/1 13/2/1 17/2/1
f 19/1/1 8/1/1 14/1/1
f 19/1/1 14/1/1 18/1/1
f 19/1/1 4/1/1 8/1/1
f 20/1/1 4/1/1 19/1/1
f 21/1/1 18/1/1 17/1/1
f 21/1/1 15/1/1 9/1/1
f 21/1/1 17/1/1 16/1/1
f 21/1/1 19/1/1 18/1/1
f 21/1/1 16/1/1 15/1/1
f 22/1/1 19/1/1 21/1/1
f 23/1/1 19/1/1 22/1/1
f 24/1/1 19/1/1 23/1/1
f 25/1/1 19/1/1 24/1/1
f 26/3/1 22/3/1 21/3/1
f 26/4/1 23/4/1 22/4/1
f 27/1/1 24/1/1 23/1/1
f 27/4/1 23/4/1 26/4/1
f 28/1/1 24/1/1 27/1/1
f 29/1/1 24/1/1 28/1/1
f 30/3/1 25/3/1 24/3/1
f 30/1/1 24/1/1 29/1/1
f 31/1/1 19/1/1 25/1/1
f 31/3/1 25/3/1 30/3/1
f 32/1/1 19/1/1 31/1/1
f 33/1/1 19/1/1 32/1/1
f 34/3/1 20/3/1 19/3/1
f 34/1/1 19/1/1 33/1/1
f 35/3/1 26/3/1 21/3/1
f 35/3/1 27/3/1 26/3/1
f 35/3/1 28/3/1 27/3/1
f 36/3/1 28/3/1 35/3/1
f 37/1/1 29/1/1 28/1/1
f 37/3/1 28/3/1 36/3/1
f 38/4/1 30/4/1 29/4/1
f 38/1/1 29/1/1 37/1/1
f 39/3/1 32/3/1 31/3/1
f 39/4/1 30/4/1 38/4/1
f 39/3/1 31/3/1 30/3/1
f 40/3/1 32/3/1 39/3/1
f 41/1/1 33/1/1 32/1/1
f 41/3/1 32/3/1 40/3/1
f 42/3/1 34/3/1 33/3/1
f 42/1/1 33/1/1 41/1/1
f 43/3/1 20/3/1 34/3/1
f 43/3/1 34/3/1 42/3/1
f 44/3/1 20/3/1 43/3/1
f 45/4/1 36/4/1 35/4/1
f 45/3/1 35/3/1 21/3/1
f 46/3/1 40/3/1 39/3/1
f 46/4/1 36/4/1 45/4/1
f 46/3/1 37/3/1 36/3/1
f 46/3/1 38/3/1 37/3/1
f 46/3/1 39/3/1 38/3/1
f 47/4/1 41/4/1 40/4/1
f 47/3/1 40/3/1 46/3/1
f 48/3/1 43/3/1 42/3/1
f 48/4/1 41/4/1 47/4/1
f 48/3/1 42/3/1 41/3/1
f 49/4/1 44/4/1 43/4/1
f 49/3/1 43/3/1 48/3/1
f 50/4/1 44/4/1 49/4/1
f 51/3/1 45/3/1 21/3/1
f 51/3/1 47/3/1 46/3/1
f 51/3/1 50/3/1 49/3/1
f 51/3/1 49/3/1 48/3/1
f 51/3/1 46/3/1 45/3/1
f 51/3/1 48/3/1 47/3/1
f 52/3/1 50/3/1 51/3/1
f 53/2/2 54/2/2 55/2/2
f 55/2/2 54/2/2 56/2/2
f 56/2/2 54/2/2 57/2/2
f 57/2/2 54/2/2 58/2/2
f 58/2/2 54/2/2 59/2/2
f 59/2/2 54/2/2 60/2/2
f 56/2/2 57/2/2 61/2/2
f 57/1/2 58/1/2 62/1/2
f 61/2/2 57/2/2 62/2/2
f 58/2/2 59/2/2 63/2/2
f 62/1/2 58/1/2 63/1/2
f 59/1/2 60/1/2 64/1/2
f 63/2/2 59/2/2 64/2/2
f 55/1/2 56/1/2 65/1/2
f 56/2/2 61/2/2 65/2/2
f 63/1/2 64/1/2 66/1/2
f 65/2/2 61/2/2 66/2/2
f 61/1/2 62/1/2 66/1/2
f 62/1/2 63/1/2 66/1/2
f 64/1/2 60/1/2 67/1/2
f 66/1/2 64/1/2 67/1/2
f 60/2/2 54/2/2 67/2/2
f 67/2/2 54/2/2 68/2/2
f 65/1/2 66/1/2 69/1/2
f 66/1/2 67/1/2 69/1/2
f 67/1/2 68/1/2 69/1/2
f 69/1/2 68/1/2 70/1/2
f 55/1/2 65/1/2 71/1/2
f 65/1/2 69/1/2 71/1/2
f 71/1/2 69/1/2 72/1/2
f 72/1/2 69/1/2 73/1/2
f 69/4/2 70/4/2 74/4/2
f 73/1/2 69/1/2 74/1/2
f 70/1/2 68/1/2 75/1/2
f 74/4/2 70/4/2 75/4/2
f 75/1/2 68/1/2 76/1/2
f 76/1/2 68/1/2 77/1/2
f 72/1/2 73/1/2 78/1/2
f 71/3/2 72/3/2 78/3/2
f 73/3/2 74/3/2 79/3/2
f 78/1/2 73/1/2 79/1/2
f 74/3/2 75/3/2 79/3/2
f 79/3/2 75/3/2 80/3/2
f 75/1/2 76/1/2 81/1/2
f 80/3/2 75/3/2 81/3/2
f 81/1/2 76/1/2 82/1/2
f 82/1/2 76/1/2 83/1/2
f 76/3/2 77/3/2 84/3/2
f 83/1/2 76/1/2 84/1/2
f 77/1/2 68/1/2 85/1/2
f 84/3/2 77/3/2 85/3/2
f 85/1/2 68/1/2 86/1/2
f 86/1/2 68/1/2 87/1/2
f 79/4/2 80/4/2 88/4/2
f 78/3/2 79/3/2 88/3/2
f 80/3/2 81/3/2 89/3/2
f 88/4/2 80/4/2 89/4/2
f 81/3/2 82/3/2 89/3/2
f 82/1/2 83/1/2 90/1/2
f 89/3/2 82/3/2 90/3/2
f 83/3/2 84/3/2 91/3/2
f 90/1/2 83/1/2 91/1/2
f 84/4/2 85/4/2 92/4/2
f 91/3/2 84/3/2 92/3/2
f 85/1/2 86/1/2 93/1/2
f 92/4/2 85/4/2 93/4/2
f 86/3/2 87/3/2 94/3/2
f 93/1/2 86/1/2 94/1/2
f 71/3/2 78/3/2 95/3/2
f 89/3/2 90/3/2 95/3/2
f 93/3/2 94/3/2 95/3/2
f 90/3/2 91/3/2 95/3/2
f 91/3/2 92/3/2 95/3/2
f 78/3/2 88/3/2 95/3/2
f 92/3/2 93/3/2 95/3/2
f 88/3/2 89/3/2 95/3/2
f 94/3/2 87/3/2 96/3/2
f 95/3/2 94/3/2 96/3/2
f 101/2/3 98/2/3 97/2/3
f 102/1/3 99/1/3 98/1/3
f 102/2/3 98/2/3 101/2/3
f 103/3/3 100/3/3 99/3/3
f 103/1/3 99/1/3 102/1/3
f 104/3/3 100/3/3 103/3/3
f 105/3/3 100/3/3 104/3/3
f 106/1/3 102/1/3 101/1/3
f 106/1/3 103/1/3 102/1/3
f 106/4/3 105/4/3 104/4/3
f 106/1/3 104/1/3 103/1/3
f 107/3/3 100/3/3 105/3/3
f 107/4/3 105/4/3 106/4/3
f 108/2/3 101/2/3 97/2/3
f 109/1/3 106/1/3 101/1/3
f 109/2/3 101/2/3 108/2/3
f 110/2/3 108/2/3 97/2/3
f 110/1/3 109/1/3 108/1/3
f 111/1/3 106/1/3 109/1/3
f 111/1/3 109/1/3 110/1/3
f 112/1/3 106/1/3 111/1/3
f 113/3/3 107/3/3 106/3/3
f 113/1/3 106/1/3 112/1/3
f 114/3/3 100/3/3 107/3/3
f 114/3/3 107/3/3 113/3/3
f 115/3/3 100/3/3 114/3/3
f 116/1/3 112/1/3 111/1/3
f 116/2/3 111/2/3 110/2/3
f 117/1/3 112/1/3 116/1/3
f 118/4/3 113/4/3 112/4/3
f 118/1/3 112/1/3 117/1/3
f 119/3/3 114/3/3 113/3/3
f 119/4/3 113/4/3 118/4/3
f 120/4/3 115/4/3 114/4/3
f 120/3/3 114/3/3 119/3/3
f 121/3/3 100/3/3 115/3/3
f 121/4/3 115/4/3 120/4/3
f 122/2/3 117/2/3 116/2/3
f 122/2/3 116/2/3 110/2/3
f 123/1/3 119/1/3 118/1/3
f 123/2/3 117/2/3 122/2/3
f 123/1/3 118/1/3 117/1/3
f 124/1/3 119/1/3 123/1/3
f 125/3/3 120/3/3 119/3/3
f 125/1/3 119/1/3 124/1/3
f 125/3/3 121/3/3 120/3/3
f 126/2/3 110/2/3 97/2/3
f 126/2/3 122/2/3 110/2/3
f 127/1/3 124/1/3 123/1/3
f 127/2/3 122/2/3 126/2/3
f 127/1/3 123/1/3 122/1/3
f 128/3/3 125/3/3 124/3/3
f 128/1/3 124/1/3 127/1/3
f 129/3/3 121/3/3 125/3/3
f 129/3/3 125/3/3 128/3/3
f 130/1/3 128/1/3 127/1/3
f 130/2/3 126/2/3 97/2/3
f 130/1/3 129/1/3 128/1/3
f 130/1/3 127/1/3 126/1/3
f 131/1/3 129/1/3 130/1/3
f 132/1/3 129/1/3 131/1/3
f 133/3/3 121/3/3 129/3/3
f 133/1/3 129/1/3 132/1/3
f 134/3/3 100/3/3 121/3/3
f 134/3/3 121/3/3 133/3/3
f 135/2/3 130/2/3 97/2/3
f 135/2/3 131/2/3 130/2/3
f 136/1/3 132/1/3 131/1/3
f 136/2/3 131/2/3 135/2/3
f 137/1/3 132/1/3 136/1/3
f 138/3/3 133/3/3 132/3/3
f 138/1/3 132/1/3 137/1/3
f 139/4/3 134/4/3 133/4/3
f 139/3/3 133/3/3 138/3/3
f 140/3/3 100/3/3 134/3/3
f 140/4/3 134/4/3 139/4/3
f 141/2/3 135/2/3 97/2/3
f 142/1/3 137/1/3 136/1/3
f 142/2/3 135/2/3 141/2/3
f 142/1/3 136/1/3 135/1/3
f 143/3/3 139/3/3 138/3/3
f 143/1/3 137/1/3 142/1/3
f 143/3/3 138/3/3 137/3/3
f 143/3/3 140/3/3 139/3/3
f 144/3/3 100/3/3 140/3/3
f 144/3/3 140/3/3 143/3/3
f 146/1/4 147/1/4 151/1/4
f 147/3/4 148/3/4 151/3/4
f 151/3/4 148/3/4 152/3/4
f 148/4/4 149/4/4 153/4/4
f 152/3/4 148/3/4 153/3/4
f 149/3/4 150/3/4 154/3/4
f 153/4/4 149/4/4 154/4/4
f 145/2/4 146/2/4 155/2/4
f 151/1/4 152/1/4 155/1/4
f 146/1/4 151/1/4 155/1/4
f 155/1/4 152/1/4 156/1/4
f 152/3/4 153/3/4 157/3/4
f 156/1/4 152/1/4 157/1/4
f 153/3/4 154/3/4 157/3/4
f 157/3/4 154/3/4 158/3/4
f 155/2/4 156/2/4 159/2/4
f 156/1/4 157/1/4 159/1/4
f 157/1/4 158/1/4 159/1/4
f 159/1/4 158/1/4 160/1/4
f 160/1/4 158/1/4 161/1/4
f 158/3/4 154/3/4 162/3/4
f 161/1/4 158/1/4 162/1/4
f 155/2/4 159/2/4 163/2/4
f 159/2/4 160/2/4 163/2/4
f 160/1/4 161/1/4 164/1/4
f 163/2/4 160/2/4 164/2/4
f 161/4/4 162/4/4 165/4/4
f 164/1/4 161/1/4 165/1/4
f 162/3/4 154/3/4 166/3/4
f 165/4/4 162/4/4 166/4/4
f 166/3/4 154/3/4 167/3/4
f 154/3/4 150/3/4 168/3/4
f 167/3/4 154/3/4 168/3/4
f 155/2/4 163/2/4 169/2/4
f 164/1/4 165/1/4 169/1/4
f 163/1/4 164/1/4 169/1/4
f 165/1/4 166/1/4 169/1/4
f 169/1/4 166/1/4 170/1/4
f 170/1/4 166/1/4 171/1/4
f 166/3/4 167/3/4 172/3/4
f 171/1/4 166/1/4 172/1/4
f 167/4/4 168/4/4 173/4/4
f 172/3/4 167/3/4 173/3/4
f 168/3/4 150/3/4 174/3/4
f 173/4/4 168/4/4 174/4/4
f 145/2/4 155/2/4 175/2/4
f 155/2/4 169/2/4 175/2/4
f 169/2/4 170/2/4 175/2/4
f 170/1/4 171/1/4 176/1/4
f 175/2/4 170/2/4 176/2/4
f 172/3/4 173/3/4 177/3/4
f 176/1/4 171/1/4 177/1/4
f 171/3/4 172/3/4 177/3/4
f 173/3/4 174/3/4 177/3/4
f 177/3/4 174/3/4 178/3/4
f 175/1/4 176/1/4 179/1/4
f 176/1/4 177/1/4 179/1/4
f 177/1/4 178/1/4 179/1/4
f 178/3/4 174/3/4 180/3/4
f 179/1/4 178/1/4 180/1/4
f 145/2/4 175/2/4 181/2/4
f 175/1/4 179/1/4 181/1/4
f 181/1/4 179/1/4 182/1/4
f 179/4/4 180/4/4 183/4/4
f 182/1/4 179/1/4 183/1/4
f 180/3/4 174/3/4 184/3/4
f 183/4/4 180/4/4 184/4/4
f 184/3/4 174/3/4 185/3/4
f 174/3/4 150/3/4 186/3/4
f 185/3/4 174/3/4 186/3/4
f 182/1/4 183/1/4 187/1/4
f 184/1/4 185/1/4 187/1/4
f 183/1/4 184/1/4 187/1/4
f 185/4/4 186/4/4 188/4/4
f 187/1/4 185/1/4 188/1/4
f 186/3/4 150/3/4 189/3/4
f 188/4/4 186/4/4 189/4/4
f 181/2/4 182/2/4 190/2/4
f 145/2/4 181/2/4 190/2/4
f 182/1/4 187/1/4 191/1/4
f 190/2/4 182/2/4 191/2/4
f 187/3/4 188/3/4 192/3/4
f 191/1/4 187/1/4 192/1/4
f 188/3/4 189/3/4 192/3/4
f 189/3/4 150/3/4 193/3/4
f 192/3/4 189/3/4 193/3/4
f 196/2/5 195/2/5 194/2/5
f 197/2/5 195/2/5 196/2/5
f 198/2/5 196/2/5 194/2/5
f 198/1/5 197/1/5 196/1/5
f 199/2/5 195/2/5 197/2/5
f 199/1/5 197/1/5 198/1/5
f 200/2/5 198/2/5 194/2/5
f 200/2/5 199/2/5 198/2/5
f 201/2/5 195/2/5 199/2/5
f 201/2/5 199/2/5 200/2/5
f 202/3/6 203/3/6 204/3/6
f 204/3/6 203/3/6 205/3/6
f 205/3/6 203/3/6 206/3/6
f 206/3/6 203/3/6 207/3/6
f 207/3/6 203/3/6 208/3/6
f 208/3/6 203/3/6 209/3/6
f 202/3/6 204/3/6 210/3/6
f 204/4/6 205/4/6 210/4/6
f 205/3/6 206/3/6 211/3/6
f 210/4/6 205/4/6 211/4/6
f 206/4/6 207/4/6 212/4/6
f 211/3/6 206/3/6 212/3/6
f 207/3/6 208/3/6 213/3/6
f 212/4/6 207/4/6 213/4/6
f 213/3/6 208/3/6 214/3/6
f 208/4/6 209/4/6 215/4/6
f 214/3/6 208/3/6 215/3/6
f 209/3/6 203/3/6 216/3/6
f 215/4/6 209/4/6 216/4/6
f 216/3/6 203/3/6 217/3/6
f 202/3/6 210/3/6 218/3/6
f 210/3/6 211/3/6 218/3/6
f 211/4/6 212/4/6 219/4/6
f 218/3/6 211/3/6 219/3/6
f 213/3/6 214/3/6 220/3/6
f 219/4/6 212/4/6 220/4/6
f 212/3/6 213/3/6 220/3/6
f 220/3/6 214/3/6 221/3/6
f 214/4/6 215/4/6 222/4/6
f 221/3/6 214/3/6 222/3/6
f 215/3/6 216/3/6 223/3/6
f 222/4/6 215/4/6 223/4/6
f 216/4/6 217/4/6 224/4/6
f 223/3/6 216/3/6 224/3/6
f 217/3/6 203/3/6 225/3/6
f 224/4/6 217/4/6 225/4/6
f 220/3/6 221/3/6 226/3/6
f 221/4/6 222/4/6 226/4/6
f 219/3/6 220/3/6 226/3/6
f 223/3/6 224/3/6 227/3/6
f 226/4/6 222/4/6 227/4/6
f 222/3/6 223/3/6 227/3/6
f 224/3/6 225/3/6 227/3/6
f 218/4/6 219/4/6 228/4/6
f 202/3/6 218/3/6 228/3/6
f 219/3/6 226/3/6 229/3/6
f 228/4/6 219/4/6 229/4/6
f 226/3/6 227/3/6 229/3/6
f 229/3/6 227/3/6 230/3/6
f 230/3/6 227/3/6 231/3/6
f 227/3/6 225/3/6 232/3/6
f 231/3/6 227/3/6 232/3/6
f 232/3/6 225/3/6 233/3/6
f 230/4/6 231/4/6 234/4/6
f 228/3/6 229/3/6 234/3/6
f 229/3/6 230/3/6 234/3/6
f 231/3/6 232/3/6 235/3/6
f 234/4/6 231/4/6 235/4/6
f 235/3/6 232/3/6 236/3/6
f 232/4/6 233/4/6 237/4/6
f 236/3/6 232/3/6 237/3/6
f 233/3/6 225/3/6 238/3/6
f 237/4/6 233/4/6 238/4/6
f 238/3/6 225/3/6 239/3/6
f 225/3/6 203/3/6 240/3/6
f 239/3/6 225/3/6 240/3/6
f 202/3/6 228/3/6 241/3/6
f 235/3/6 236/3/6 241/3/6
f 228/3/6 234/3/6 241/3/6
f 234/3/6 235/3/6 241/3/6
f 241/3/6 236/3/6 242/3/6
f 236/4/6 237/4/6 243/4/6
f 242/3/6 236/3/6 243/3/6
f 238/3/6 239/3/6 244/3/6
f 243/4/6 237/4/6 244/4/6
f 237/3/6 238/3/6 244/3/6
f 239/4/6 240/4/6 245/4/6
f 244/3/6 239/3/6 245/3/6
f 240/3/6 203/3/6 246/3/6
f 245/4/6 240/4/6 246/4/6
f 241/4/6 242/4/6 247/4/6
f 202/3/6 241/3/6 247/3/6
f 242/3/6 243/3/6 248/3/6
f 247/4/6 242/4/6 248/4/6
f 244/3/6 245/3/6 248/3/6
f 245/3/6 246/3/6 248/3/6
f 243/3/6 244/3/6 248/3/6
f 248/3/6 246/3/6 249/3/6
f 249/3/6 246/3/6 250/3/6
f 250/3/6 246/3/6 251/3/6
f 247/3/6 248/3/6 252/3/6
f 248/4/6 249/4/6 252/4/6
f 249/3/6 250/3/6 253/3/6
f 252/4/6 249/4/6 253/4/6
f 250/4/6 251/4/6 254/4/6
f 253/3/6 250/3/6 254/3/6
f 251/3/6 246/3/6 255/3/6
f 254/4/6 251/4/6 255/4/6
f 202/3/6 247/3/6 256/3/6
f 253/3/6 254/3/6 256/3/6
f 254/3/6 255/3/6 256/3/6
f 247/3/6 252/3/6 256/3/6
f 252/3/6 253/3/6 256/3/6
f 255/3/6 246/3/6 257/3/6
f 256/3/6 255/3/6 257/3/6
f 246/3/6 203/3/6 257/3/6
